<svg xmlns="http://www.w3.org/2000/svg" viewBox="0 0 1600 900" preserveAspectRatio="xMidYMid slice">
  <!-- 仮のヒーロー背景（チャートをイメージ）。写真に差し替える場合は hero.jpg 等に変更し CSS のパスを修正 -->
  <defs>
    <linearGradient id="bg" x1="0" y1="0" x2="1" y2="1">
      <stop offset="0" stop-color="#091428"/>
      <stop offset="1" stop-color="#1c2f55"/>
    </linearGradient>
  </defs>
  <rect width="1600" height="900" fill="url(#bg)"/>
  <g stroke="#ffffff" stroke-opacity="0.05">
    <path d="M0 150H1600M0 300H1600M0 450H1600M0 600H1600M0 750H1600"/>
    <path d="M200 0V900M400 0V900M600 0V900M800 0V900M1000 0V900M1200 0V900M1400 0V900"/>
  </g>
  <g fill="#c8a24a" fill-opacity="0.18">
    <rect x="820" y="520" width="18" height="120"/><rect x="870" y="470" width="18" height="140"/>
    <rect x="920" y="500" width="18" height="90"/><rect x="970" y="420" width="18" height="150"/>
    <rect x="1020" y="440" width="18" height="100"/><rect x="1070" y="360" width="18" height="140"/>
    <rect x="1120" y="380" width="18" height="90"/><rect x="1170" y="300" width="18" height="150"/>
    <rect x="1220" y="320" width="18" height="110"/><rect x="1270" y="240" width="18" height="140"/>
    <rect x="1320" y="260" width="18" height="100"/><rect x="1370" y="190" width="18" height="130"/>
    <rect x="1420" y="200" width="18" height="90"/><rect x="1470" y="130" width="18" height="130"/>
  </g>
  <path d="M0 720 C200 700 300 760 450 650 S700 600 830 560 S1000 470 1080 420 S1250 330 1330 290 S1500 170 1600 150"
        fill="none" stroke="#e2c77d" stroke-opacity="0.45" stroke-width="3"/>
</svg>
